<svg width="44" height="44" viewBox="0 0 44 44" fill="none" xmlns="http://www.w3.org/2000/svg">
<path fill-rule="evenodd" clip-rule="evenodd" d="M29.7364 1.408C27.3372 0.484 24.74 0 22.0107 0C21.0862 0 20.1838 0.066 19.3033 0.176C17.498 2.08919 16.7889 4.17426 16.0502 6.34627L16.0237 6.424L16.0077 6.47009C14.406 11.0759 12.747 15.8465 0.396144 17.798C0.242069 18.59 0.132016 19.404 0.0659839 20.218C1.9164 19.6958 4.04672 19.4749 6.35046 19.2359L6.42708 19.228L6.43947 19.2267C14.6471 18.391 24.6545 17.372 29.7364 1.408ZM21.0422 5.5C21.9446 5.5 22.671 6.226 22.671 7.128C22.671 8.03 21.9446 8.756 21.0422 8.756C20.1397 8.756 19.4134 8.03 19.4134 7.128C19.4134 6.226 20.1397 5.5 21.0422 5.5ZM16.0458 0.813989C15.0333 2.46399 14.461 4.13599 13.9327 5.69799C12.48 9.96599 11.2034 13.684 0.990457 15.466C3.19153 8.38199 8.87029 2.83799 16.0458 0.813989ZM32.906 10.624C29.9566 14.782 26.8971 19.072 19.9857 21.228C14.2409 23.032 10.4551 25.122 7.72575 28.026C5.9649 29.918 4.66627 32.162 3.87388 34.758C1.4307 31.216 0 26.904 0 22.284C0 21.998 0 21.712 0.0440214 21.448C1.88308 20.8572 4.09236 20.6364 6.49855 20.3959L6.53718 20.392C11.1374 19.93 16.376 19.402 21.0642 16.212C25.3123 13.308 28.4378 8.644 30.5508 2C32.818 2.946 34.8649 4.266 36.6698 5.872C35.3262 7.23631 34.1892 8.82784 33.0186 10.4664L32.906 10.624ZM29.8685 42.5479C31.1891 40.8319 32.3997 38.9399 33.6103 37.0039L33.6506 36.9399C36.2592 32.7988 39.1373 28.2299 43.8453 24.728C42.8328 32.9119 37.3301 39.6879 29.8685 42.5479ZM42.4146 13.75C39.9935 15.334 37.4843 17.292 34.865 19.624C32.5098 21.714 30.9031 25.124 29.2082 28.732C26.699 34.1 23.9037 40.04 17.9388 43.626C19.2594 43.868 20.6021 44 21.9887 44C24.1898 44 26.3028 43.67 28.3058 43.076C29.9126 41.184 31.3433 38.94 32.84 36.542C35.6133 32.12 38.6948 27.214 43.9554 23.562C43.9994 23.056 43.9994 22.528 43.9994 22C44.0214 19.074 43.4492 16.302 42.4146 13.75ZM28.0646 28.1332L28.0416 28.182L28.038 28.1896C25.4417 33.7097 22.5359 39.8875 16.0458 43.164C11.9518 42.02 8.34203 39.71 5.59069 36.63C7.24149 28.864 12.8542 25.476 20.646 23.034C28.2617 20.658 31.6954 15.862 34.7108 11.616C35.8774 9.96601 36.978 8.42601 38.2546 7.12801C39.7073 8.73401 40.9399 10.538 41.8863 12.518C39.3551 14.168 36.7358 16.214 34.0065 18.634C31.4644 20.9121 29.8168 24.4114 28.0646 28.1332ZM14.1088 33.132C14.1088 34.738 15.4075 36.036 17.0142 36.036C18.621 36.036 19.9197 34.738 19.9197 33.132C19.9197 31.526 18.621 30.228 17.0142 30.228C15.4075 30.228 14.1088 31.526 14.1088 33.132Z" fill="url(#paint0_linear)"/>
<defs>
<linearGradient id="paint0_linear" x1="4.62593e-07" y1="16.39" x2="41.5974" y2="27.8403" gradientUnits="userSpaceOnUse">
<stop stop-color="#1BE9DB"/>
<stop offset="0.399429" stop-color="#883AFF"/>
<stop offset="0.715514" stop-color="#2A50FF"/>
<stop offset="1" stop-color="#CE38FC"/>
</linearGradient>
</defs>
</svg>
